:FULLY-SPECIFIED
:FORCE-ALL-JOINTS-BE-3DOF
:DEGREES
1733
root -5.243 15.5666 27.06 905.966 -1.17825 187.66
lfemur -43.7985 9.9357 -16.6407
ltibia 58.4136 0 0
lfoot -17.2233 26.2826 0
ltoes -14.011 0 0
rfemur -25.2361 -15.5866 17.0352
rtibia 63.5919 0 0
rfoot -10.3063 -24.6546 0
rtoes 9.78746 0 0
lowerback 16.232 3.26147 -6.78365
upperback -0.499496 3.19532 1.57578
thorax -10.1057 1.93144 4.72711
lowerneck 4.9192 -15.5555 -17.1633
upperneck -3.29015 -22.0316 23.8509
head 2.94714 -11.2971 8.97879
lclavicle 8.78036e-14 3.10483e-14 0
lhumerus -53.0031 -36.8636 114.245
lradius 98.7614 0 0
lwrist 42.9101 0 0
lhand -3.07443 35.6623 0
lfingers 7.12502 0 0
lthumb 22.6425 64.3539 0
rclavicle 8.78036e-14 3.10483e-14 0
rhumerus 22.7285 35.4743 -35.8088
rradius 118.105 0 0
rwrist -14.6854 0 0
rhand 6.04167 -28.707 0
rfingers 7.12502 0 0
rthumb 31.3511 -55.9318 0
1734
root -5.17534 15.5688 27.1119 905.927 1.44085 187.626
lfemur -43.0911 8.53315 -15.6131
ltibia 58.2109 0 0
lfoot -17.0439 25.2214 0
ltoes -15.5426 0 0
rfemur -25.5616 -15.9865 17.3423
rtibia 62.8114 0 0
rfoot -10.628 -24.6271 0
rtoes 9.3302 0 0
lowerback 16.3359 3.49147 -6.92902
upperback -0.443877 3.45567 1.34406
thorax -10.1327 2.05897 4.48163
lowerneck 4.7757 -15.4869 -17.1871
upperneck -3.15759 -21.9088 23.8422
head 2.98643 -11.2094 8.98051
lclavicle 9.05559e-14 3.09725e-14 0
lhumerus -54.1737 -35.2154 113.635
lradius 99.2727 0 0
lwrist 42.8995 0 0
lhand -3.05057 34.8654 0
lfingers 7.12502 0 0
lthumb 22.6654 63.5542 0
rclavicle 9.05559e-14 3.09725e-14 0
rhumerus 18.8016 35.4809 -37.9095
rradius 117.497 0 0
rwrist -14.0693 0 0
rhand 5.5716 -28.9141 0
rfingers 7.12502 0 0
rthumb 30.9033 -56.2256 0
1735
root -5.10767 15.571 27.1637 905.889 4.05996 187.592
lfemur -42.3836 7.13059 -14.5856
ltibia 58.0083 0 0
lfoot -16.8644 24.1602 0
ltoes -17.0741 0 0
rfemur -25.8871 -16.3865 17.6493
rtibia 62.0308 0 0
rfoot -10.9498 -24.5996 0
rtoes 8.87293 0 0
lowerback 16.4398 3.72146 -7.0744
upperback -0.388257 3.71601 1.11233
thorax -10.1597 2.1865 4.23615
lowerneck 4.6322 -15.4184 -17.2108
upperneck -3.02503 -21.7861 23.8335
head 3.02571 -11.1217 8.98222
lclavicle 9.33081e-14 3.08968e-14 0
lhumerus -55.3442 -33.5673 113.024
lradius 99.784 0 0
lwrist 42.8889 0 0
lhand -3.0267 34.0684 0
lfingers 7.12502 0 0
lthumb 22.6883 62.7544 0
rclavicle 9.33081e-14 3.08968e-14 0
rhumerus 14.8746 35.4875 -40.0102
rradius 116.89 0 0
rwrist -13.4532 0 0
rhand 5.10153 -29.1213 0
rfingers 7.12502 0 0
rthumb 30.4554 -56.5195 0
1736
root -5.04 15.5731 27.2155 905.851 6.67906 187.558
lfemur -41.6762 5.72803 -13.558
ltibia 57.8057 0 0
lfoot -16.685 23.0991 0
ltoes -18.6056 0 0
rfemur -26.2126 -16.7864 17.9563
rtibia 61.2502 0 0
rfoot -11.2715 -24.572 0
rtoes 8.41567 0 0
lowerback 16.5438 3.95146 -7.21977
upperback -0.332638 3.97636 0.880604
thorax -10.1867 2.31403 3.99067
lowerneck 4.4887 -15.3499 -17.2345
upperneck -2.89247 -21.6634 23.8248
head 3.06499 -11.0341 8.98394
lclavicle 9.60603e-14 3.08211e-14 0
lhumerus -56.5148 -31.9192 112.413
lradius 100.295 0 0
lwrist 42.8782 0 0
lhand -3.00283 33.2714 0
lfingers 7.12502 0 0
lthumb 22.7112 61.9546 0
rclavicle 9.60603e-14 3.08211e-14 0
rhumerus 10.9476 35.4941 -42.1109
rradius 116.283 0 0
rwrist -12.8371 0 0
rhand 4.63146 -29.3285 0
rfingers 7.12502 0 0
rthumb 30.0075 -56.8133 0
